<mxfile host="app.diagrams.net" agent="Mozilla/5.0 (Windows NT 10.0; Win64; x64; rv:133.0) Gecko/20100101 Firefox/133.0" version="25.0.3">
  <diagram name="Page-1" id="74e2e168-ea6b-b213-b513-2b3c1d86103e">
    <mxGraphModel dx="1433" dy="774" grid="1" gridSize="10" guides="1" tooltips="1" connect="1" arrows="1" fold="1" page="1" pageScale="1" pageWidth="1100" pageHeight="850" background="none" math="0" shadow="0">
      <root>
        <mxCell id="0" />
        <mxCell id="1" parent="0" />
        <mxCell id="77e6c97f196da883-1" value="RF4" style="swimlane;html=1;childLayout=stackLayout;startSize=20;rounded=0;shadow=0;labelBackgroundColor=none;strokeWidth=1;fontFamily=Verdana;fontSize=8;align=center;" parent="1" vertex="1">
          <mxGeometry x="90" y="40" width="930" height="690" as="geometry" />
        </mxCell>
        <mxCell id="77e6c97f196da883-2" value="Tecnico" style="swimlane;html=1;startSize=20;" parent="77e6c97f196da883-1" vertex="1">
          <mxGeometry y="20" width="160" height="670" as="geometry" />
        </mxCell>
        <mxCell id="6YQ4Ffm7FHz-dbg0A2aF-3" style="edgeStyle=orthogonalEdgeStyle;rounded=0;orthogonalLoop=1;jettySize=auto;html=1;entryX=0.5;entryY=0;entryDx=0;entryDy=0;" edge="1" parent="77e6c97f196da883-2" source="77e6c97f196da883-8" target="6YQ4Ffm7FHz-dbg0A2aF-2">
          <mxGeometry relative="1" as="geometry" />
        </mxCell>
        <mxCell id="77e6c97f196da883-8" value="Visualizza la pagina &quot;gestione&quot; da cui sono visibili i ticket accettati" style="rounded=1;whiteSpace=wrap;html=1;shadow=0;labelBackgroundColor=none;strokeWidth=1;fontFamily=Verdana;fontSize=8;align=center;" parent="77e6c97f196da883-2" vertex="1">
          <mxGeometry x="20" y="65" width="100" height="60" as="geometry" />
        </mxCell>
        <mxCell id="6YQ4Ffm7FHz-dbg0A2aF-2" value="Organizza i ticket nel calendario integrato nella web app" style="rounded=1;whiteSpace=wrap;html=1;shadow=0;labelBackgroundColor=none;strokeWidth=1;fontFamily=Verdana;fontSize=8;align=center;" vertex="1" parent="77e6c97f196da883-2">
          <mxGeometry x="20" y="190" width="100" height="60" as="geometry" />
        </mxCell>
        <mxCell id="77e6c97f196da883-3" value="Operaio" style="swimlane;html=1;startSize=20;" parent="77e6c97f196da883-1" vertex="1">
          <mxGeometry x="160" y="20" width="160" height="670" as="geometry" />
        </mxCell>
        <mxCell id="6YQ4Ffm7FHz-dbg0A2aF-11" style="edgeStyle=orthogonalEdgeStyle;rounded=0;orthogonalLoop=1;jettySize=auto;html=1;entryX=0.5;entryY=0;entryDx=0;entryDy=0;" edge="1" parent="77e6c97f196da883-3" source="6YQ4Ffm7FHz-dbg0A2aF-9" target="6YQ4Ffm7FHz-dbg0A2aF-12">
          <mxGeometry relative="1" as="geometry">
            <mxPoint x="80" y="450" as="targetPoint" />
          </mxGeometry>
        </mxCell>
        <mxCell id="6YQ4Ffm7FHz-dbg0A2aF-9" value="Utilizza il token per accedere al portale dedicato all operatore esterno" style="rounded=1;whiteSpace=wrap;html=1;shadow=0;labelBackgroundColor=none;strokeWidth=1;fontFamily=Verdana;fontSize=8;align=center;" vertex="1" parent="77e6c97f196da883-3">
          <mxGeometry x="30" y="320" width="100" height="60" as="geometry" />
        </mxCell>
        <mxCell id="6YQ4Ffm7FHz-dbg0A2aF-12" value="&lt;div&gt;Aggiunge, tramite token, l&#39;evento al calendario del suo account&lt;/div&gt;&lt;div&gt;(in sincrono con il tecnico)&lt;br&gt;&lt;/div&gt;" style="rounded=1;whiteSpace=wrap;html=1;shadow=0;labelBackgroundColor=none;strokeWidth=1;fontFamily=Verdana;fontSize=8;align=center;" vertex="1" parent="77e6c97f196da883-3">
          <mxGeometry x="50" y="480" width="100" height="60" as="geometry" />
        </mxCell>
        <mxCell id="6YQ4Ffm7FHz-dbg0A2aF-32" value="" style="endArrow=none;html=1;rounded=0;entryX=0;entryY=0.5;entryDx=0;entryDy=0;strokeWidth=3;" edge="1" parent="77e6c97f196da883-3" target="6YQ4Ffm7FHz-dbg0A2aF-12">
          <mxGeometry width="50" height="50" relative="1" as="geometry">
            <mxPoint x="20" y="290" as="sourcePoint" />
            <mxPoint x="60" y="510" as="targetPoint" />
            <Array as="points">
              <mxPoint x="20" y="510" />
            </Array>
          </mxGeometry>
        </mxCell>
        <mxCell id="6YQ4Ffm7FHz-dbg0A2aF-6" style="edgeStyle=orthogonalEdgeStyle;rounded=0;orthogonalLoop=1;jettySize=auto;html=1;entryX=0;entryY=0.5;entryDx=0;entryDy=0;" edge="1" parent="77e6c97f196da883-1" source="6YQ4Ffm7FHz-dbg0A2aF-2" target="6YQ4Ffm7FHz-dbg0A2aF-5">
          <mxGeometry relative="1" as="geometry" />
        </mxCell>
        <mxCell id="6YQ4Ffm7FHz-dbg0A2aF-10" style="edgeStyle=orthogonalEdgeStyle;rounded=0;orthogonalLoop=1;jettySize=auto;html=1;" edge="1" parent="77e6c97f196da883-1" source="6YQ4Ffm7FHz-dbg0A2aF-8" target="6YQ4Ffm7FHz-dbg0A2aF-9">
          <mxGeometry relative="1" as="geometry" />
        </mxCell>
        <mxCell id="77e6c97f196da883-4" value="Ticket" style="swimlane;html=1;startSize=20;" parent="77e6c97f196da883-1" vertex="1">
          <mxGeometry x="320" y="20" width="290" height="670" as="geometry" />
        </mxCell>
        <mxCell id="6YQ4Ffm7FHz-dbg0A2aF-21" value="Aggiorna lo stato del ticket" style="rounded=1;whiteSpace=wrap;html=1;shadow=0;labelBackgroundColor=none;strokeWidth=1;fontFamily=Verdana;fontSize=8;align=center;" vertex="1" parent="77e6c97f196da883-4">
          <mxGeometry x="95" y="40" width="100" height="60" as="geometry" />
        </mxCell>
        <mxCell id="6YQ4Ffm7FHz-dbg0A2aF-23" value="Immette data e ora per lo svolgimento dei lavori" style="rounded=1;whiteSpace=wrap;html=1;shadow=0;labelBackgroundColor=none;strokeWidth=1;fontFamily=Verdana;fontSize=8;align=center;" vertex="1" parent="77e6c97f196da883-4">
          <mxGeometry x="95" y="260" width="100" height="60" as="geometry" />
        </mxCell>
        <mxCell id="6YQ4Ffm7FHz-dbg0A2aF-22" value="Chiude il ticket" style="rounded=1;whiteSpace=wrap;html=1;shadow=0;labelBackgroundColor=none;strokeWidth=1;fontFamily=Verdana;fontSize=8;align=center;" vertex="1" parent="77e6c97f196da883-4">
          <mxGeometry x="95" y="110" width="100" height="60" as="geometry" />
        </mxCell>
        <mxCell id="6YQ4Ffm7FHz-dbg0A2aF-28" value="Aggiunge informazioni sullo stato dei lavori (commenti)" style="rounded=1;whiteSpace=wrap;html=1;shadow=0;labelBackgroundColor=none;strokeWidth=1;fontFamily=Verdana;fontSize=8;align=center;" vertex="1" parent="77e6c97f196da883-4">
          <mxGeometry x="95" y="440" width="100" height="60" as="geometry" />
        </mxCell>
        <mxCell id="6YQ4Ffm7FHz-dbg0A2aF-16" value="Sistema" style="swimlane;html=1;startSize=20;" vertex="1" parent="77e6c97f196da883-1">
          <mxGeometry x="610" y="20" width="320" height="670" as="geometry" />
        </mxCell>
        <mxCell id="6YQ4Ffm7FHz-dbg0A2aF-7" style="edgeStyle=orthogonalEdgeStyle;rounded=0;orthogonalLoop=1;jettySize=auto;html=1;" edge="1" parent="6YQ4Ffm7FHz-dbg0A2aF-16" source="6YQ4Ffm7FHz-dbg0A2aF-5">
          <mxGeometry relative="1" as="geometry">
            <mxPoint x="179.99999999999977" y="320" as="targetPoint" />
          </mxGeometry>
        </mxCell>
        <mxCell id="6YQ4Ffm7FHz-dbg0A2aF-5" value="Crea l&#39;evento nel calendario con le relative informazioni inserite" style="rounded=1;whiteSpace=wrap;html=1;shadow=0;labelBackgroundColor=none;strokeWidth=1;fontFamily=Verdana;fontSize=8;align=center;" vertex="1" parent="6YQ4Ffm7FHz-dbg0A2aF-16">
          <mxGeometry x="130" y="190" width="100" height="60" as="geometry" />
        </mxCell>
        <mxCell id="6YQ4Ffm7FHz-dbg0A2aF-8" value="Genera il Token per l&#39;operaio, per poter accedere alla sezione del calendario contenente il ticket" style="rounded=1;whiteSpace=wrap;html=1;shadow=0;labelBackgroundColor=none;strokeWidth=1;fontFamily=Verdana;fontSize=8;align=center;" vertex="1" parent="6YQ4Ffm7FHz-dbg0A2aF-16">
          <mxGeometry x="130" y="320" width="100" height="60" as="geometry" />
        </mxCell>
        <mxCell id="6YQ4Ffm7FHz-dbg0A2aF-15" value="Se token Ã¨ errato allora ritorna un messaggio di errore" style="rounded=1;whiteSpace=wrap;html=1;shadow=0;labelBackgroundColor=none;strokeWidth=1;fontFamily=Verdana;fontSize=8;align=center;" vertex="1" parent="6YQ4Ffm7FHz-dbg0A2aF-16">
          <mxGeometry x="140" y="460" width="100" height="60" as="geometry" />
        </mxCell>
        <mxCell id="6YQ4Ffm7FHz-dbg0A2aF-34" value="Il sistema blocca l&#39;impostazione di date passate partendo dal presente" style="rounded=1;whiteSpace=wrap;html=1;shadow=0;labelBackgroundColor=none;strokeWidth=1;fontFamily=Verdana;fontSize=8;align=center;" vertex="1" parent="6YQ4Ffm7FHz-dbg0A2aF-16">
          <mxGeometry x="20" y="580" width="100" height="60" as="geometry" />
        </mxCell>
        <mxCell id="6YQ4Ffm7FHz-dbg0A2aF-14" style="edgeStyle=orthogonalEdgeStyle;rounded=0;orthogonalLoop=1;jettySize=auto;html=1;exitX=0.75;exitY=1;exitDx=0;exitDy=0;entryX=0.5;entryY=0;entryDx=0;entryDy=0;" edge="1" parent="77e6c97f196da883-1" source="6YQ4Ffm7FHz-dbg0A2aF-9" target="6YQ4Ffm7FHz-dbg0A2aF-15">
          <mxGeometry relative="1" as="geometry">
            <mxPoint x="429.9999999999998" y="480" as="targetPoint" />
          </mxGeometry>
        </mxCell>
        <mxCell id="6YQ4Ffm7FHz-dbg0A2aF-24" style="edgeStyle=orthogonalEdgeStyle;rounded=0;orthogonalLoop=1;jettySize=auto;html=1;entryX=0;entryY=0.5;entryDx=0;entryDy=0;strokeWidth=3;" edge="1" parent="77e6c97f196da883-1" source="6YQ4Ffm7FHz-dbg0A2aF-2" target="6YQ4Ffm7FHz-dbg0A2aF-23">
          <mxGeometry relative="1" as="geometry">
            <Array as="points">
              <mxPoint x="70" y="310" />
            </Array>
          </mxGeometry>
        </mxCell>
        <mxCell id="6YQ4Ffm7FHz-dbg0A2aF-25" style="edgeStyle=orthogonalEdgeStyle;rounded=0;orthogonalLoop=1;jettySize=auto;html=1;exitX=0.5;exitY=1;exitDx=0;exitDy=0;entryX=0;entryY=0.5;entryDx=0;entryDy=0;strokeWidth=3;" edge="1" parent="77e6c97f196da883-1" source="6YQ4Ffm7FHz-dbg0A2aF-2" target="6YQ4Ffm7FHz-dbg0A2aF-22">
          <mxGeometry relative="1" as="geometry">
            <Array as="points">
              <mxPoint x="70" y="310" />
              <mxPoint x="360" y="310" />
              <mxPoint x="360" y="160" />
            </Array>
          </mxGeometry>
        </mxCell>
        <mxCell id="6YQ4Ffm7FHz-dbg0A2aF-26" style="edgeStyle=orthogonalEdgeStyle;rounded=0;orthogonalLoop=1;jettySize=auto;html=1;entryX=0;entryY=0.5;entryDx=0;entryDy=0;strokeWidth=3;" edge="1" parent="77e6c97f196da883-1" source="6YQ4Ffm7FHz-dbg0A2aF-2" target="6YQ4Ffm7FHz-dbg0A2aF-21">
          <mxGeometry relative="1" as="geometry">
            <Array as="points">
              <mxPoint x="70" y="310" />
              <mxPoint x="360" y="310" />
              <mxPoint x="360" y="90" />
            </Array>
          </mxGeometry>
        </mxCell>
        <mxCell id="6YQ4Ffm7FHz-dbg0A2aF-30" style="edgeStyle=orthogonalEdgeStyle;rounded=0;orthogonalLoop=1;jettySize=auto;html=1;entryX=0;entryY=0.5;entryDx=0;entryDy=0;strokeWidth=3;" edge="1" parent="77e6c97f196da883-1" source="6YQ4Ffm7FHz-dbg0A2aF-2" target="6YQ4Ffm7FHz-dbg0A2aF-28">
          <mxGeometry relative="1" as="geometry">
            <Array as="points">
              <mxPoint x="70" y="310" />
              <mxPoint x="360" y="310" />
              <mxPoint x="360" y="490" />
            </Array>
          </mxGeometry>
        </mxCell>
        <mxCell id="6YQ4Ffm7FHz-dbg0A2aF-33" style="edgeStyle=orthogonalEdgeStyle;rounded=0;orthogonalLoop=1;jettySize=auto;html=1;entryX=0.5;entryY=0;entryDx=0;entryDy=0;" edge="1" parent="77e6c97f196da883-1" source="6YQ4Ffm7FHz-dbg0A2aF-23" target="6YQ4Ffm7FHz-dbg0A2aF-34">
          <mxGeometry relative="1" as="geometry">
            <mxPoint x="699.9999999999998" y="600" as="targetPoint" />
          </mxGeometry>
        </mxCell>
      </root>
    </mxGraphModel>
  </diagram>
</mxfile>
